<svg width="160" height="34" viewBox="0 0 160 34" fill="none" xmlns="http://www.w3.org/2000/svg">
  <rect x="1" y="1" width="32" height="32" rx="10" fill="#111827"/>
  <path d="M9 11h16v4H9v-4Zm0 8h11v4H9v-4Z" fill="#FFFFFF"/>
  <path d="M38 11.5h7.8c2.7 0 4.7 1.7 4.7 4.1 0 1.9-1 3.2-2.6 3.7 1.9.5 3.1 2 3.1 4 0 2.8-2.2 4.7-5.5 4.7H38V11.5Zm7.3 8c1.4 0 2.3-.8 2.3-2 0-1.1-.9-1.9-2.3-1.9H41v3.9h4.3Zm.7 8.1c1.7 0 2.8-.9 2.8-2.3 0-1.4-1.1-2.3-2.8-2.3H41v4.6h5Z" fill="#111827"/>
  <path d="M55.6 11.5h3.2v21.2h-3.2V11.5Zm7.3 6h3.1v1.8c.9-1.3 2.4-2.1 4.4-2.1 3.6 0 6.1 2.9 6.1 7.8 0 4.9-2.5 7.8-6.1 7.8-2 0-3.5-.8-4.4-2.1v1.9h-3.1V17.5Zm6.8 13.2c2.3 0 3.7-2 3.7-5.7 0-3.7-1.4-5.7-3.7-5.7-2.2 0-3.7 2-3.7 5.7 0 3.7 1.5 5.7 3.7 5.7Z" fill="#111827"/>
  <path d="M80.2 17.5h3.1v2c.9-1.5 2.5-2.3 4.6-2.3 3.2 0 5.1 2 5.1 5.5v10h-3.2v-9.3c0-2.2-1-3.3-3-3.3-2 0-3.4 1.4-3.4 3.6v9h-3.2V17.5Z" fill="#111827"/>
  <path d="M96.9 25.1c0-4.7 3-7.9 7.5-7.9 4.5 0 7.5 3.2 7.5 7.9 0 4.7-3 7.9-7.5 7.9-4.5 0-7.5-3.2-7.5-7.9Zm7.5 5.8c2.5 0 4.2-2.1 4.2-5.8 0-3.7-1.7-5.8-4.2-5.8s-4.2 2.1-4.2 5.8c0 3.7 1.7 5.8 4.2 5.8Z" fill="#111827"/>
</svg>
